<svg t="1682426173369" class="icon" viewBox="0 0 1024 1024" version="1.1" xmlns="http://www.w3.org/2000/svg" p-id="3410" width="200" height="200"><path d="M112 499.2c0-106.08 170.24-192 400-192s400 85.92 400 192v373.28a64 64 0 0 1-64 64H176a64 64 0 0 1-64-64z" fill="#FFFFFF" p-id="3411"></path><path d="M848 872.48H176a64 64 0 0 1-64-64v64a64 64 0 0 0 64 64h672a64 64 0 0 0 64-64v-64a64 64 0 0 1-64 64z" fill="#EAEAF4" p-id="3412"></path><path d="M240 527.52m64 0l416 0q64 0 64 64l0 0q0 64-64 64l-416 0q-64 0-64-64l0 0q0-64 64-64Z" fill="#FFDA64" p-id="3413"></path><path d="M720 528H304a64 64 0 0 0-64 64 64 64 0 0 0 2.24 16A64 64 0 0 1 304 560h416a64 64 0 0 1 61.76 48 64 64 0 0 0 2.24-16 64 64 0 0 0-64-64z" fill="#FFFFFF" p-id="3414"></path><path d="M720 624H304a64 64 0 0 1-61.76-48 64 64 0 0 0-2.24 16 64 64 0 0 0 64 64h416a64 64 0 0 0 64-64 64 64 0 0 0-2.24-16A64 64 0 0 1 720 624z" fill="#FFB666" p-id="3415"></path><path d="M97.6 749.92H52.8a32 32 0 0 1-32-32v-96a32 32 0 0 1 32-32h44.8z" fill="#FFDA64" p-id="3416"></path><path d="M20.8 685.92v32a32 32 0 0 0 32 32h44.8v-32H52.8a32 32 0 0 1-32-32z" fill="#FFB666" p-id="3417"></path><path d="M52.8 589.92a32 32 0 0 0-32 32v27.2a32 32 0 0 1 32-32h44.8v-27.2z" fill="#FFFFFF" p-id="3418"></path><path d="M924.8 749.92h44.8a32 32 0 0 0 32-32v-96a32 32 0 0 0-32-32h-44.8z" fill="#FFDA64" p-id="3419"></path><path d="M1001.6 685.92v32a32 32 0 0 1-32 32h-44.8v-32h44.8a32 32 0 0 0 32-32z" fill="#FFB666" p-id="3420"></path><path d="M969.6 589.92a32 32 0 0 1 32 32v27.2a32 32 0 0 0-32-32h-44.8v-27.2z" fill="#FFFFFF" p-id="3421"></path><path d="M976 573.92h-40V499.2c0-72.16-62.72-134.08-163.36-172.8L832 224a32 32 0 1 0-27.68-16l-62.56 108.32A770.4 770.4 0 0 0 512 283.2a770.4 770.4 0 0 0-229.76 32L219.68 208A32 32 0 1 0 192 224l59.52 103.04C150.72 365.12 88 426.88 88 499.2v74.72H48a48 48 0 0 0-48 48v96a48 48 0 0 0 48 48h40v106.72A88.16 88.16 0 0 0 176 960h672a88.16 88.16 0 0 0 88-88v-106.08H976a48 48 0 0 0 48-48v-96a48 48 0 0 0-48-48z m-928 160a16 16 0 0 1-16-16v-96a16 16 0 0 1 16-16h40v128z m840 138.72A40 40 0 0 1 848 912H176a40 40 0 0 1-40-40V499.2c0-80 144-168 376-168s376 87.2 376 168z m104-154.72a16 16 0 0 1-16 16h-40v-128H976a16 16 0 0 1 16 16z" fill="#3A394B" p-id="3422"></path><path d="M720 512H304a80 80 0 0 0 0 160h416a80 80 0 1 0 0-160z m0 128H304a48 48 0 0 1 0-96h416a48 48 0 0 1 0 96zM352 193.44h48a16 16 0 0 0 15.2-10.88l3.84-11.36 30.72 61.44a16 16 0 0 0 14.24 8.8h1.44a16 16 0 0 0 13.92-11.36L512 117.12l32 97.28a16 16 0 0 0 29.44 2.08L603.04 160l4.96 21.28a16 16 0 0 0 16 12.16h48a16 16 0 0 0 0-32h-35.52L624 109.6a16 16 0 0 0-29.76-3.36l-30.56 61.28L528 58.4A16.96 16.96 0 0 0 512 48a16 16 0 0 0-15.04 11.52l-36.48 123.2-30.24-60.48a16 16 0 0 0-16-8.8 16 16 0 0 0-14.08 10.88l-12.32 37.12H352a16 16 0 0 0 0 32z" fill="#3A394B" p-id="3423"></path></svg>